<svg width="24" height="24" viewBox="0 0 24 24" fill="none" xmlns="http://www.w3.org/2000/svg">
<path d="M12 24C18.6274 24 24 18.6274 24 12C24 5.37258 18.6274 0 12 0C5.37258 0 0 5.37258 0 12C0 18.6274 5.37258 24 12 24Z" fill="#0C36A6"/>
<path d="M11.7792 3.64922C12.1715 3.44466 12.6504 3.91922 12.4416 4.31119C12.3205 4.63066 11.8615 4.71562 11.6271 4.47211C11.379 4.23833 11.46 3.77637 11.7792 3.64922ZM7.55946 4.10397C7.79778 4.00584 8.09946 4.22421 8.07512 4.48399C8.1004 4.76595 7.75566 4.9736 7.51273 4.83953C7.19089 4.7149 7.22768 4.19239 7.55946 4.10404V4.10397ZM16.2019 4.84745C15.8294 4.80245 15.7705 4.21694 16.1291 4.09864C16.4072 3.963 16.6623 4.21737 16.703 4.48097C16.6447 4.70604 16.4562 4.91218 16.2019 4.84709V4.84745ZM8.51944 5.89967C8.91789 5.64766 9.4864 6.02293 9.42513 6.48575C9.40446 6.95303 8.78375 7.22376 8.43361 6.90782C8.09521 6.6597 8.14633 6.0904 8.51944 5.89981V5.89967ZM14.6017 6.16722C14.7796 5.70958 15.4999 5.69518 15.7022 6.14159C15.9022 6.48863 15.6562 6.9184 15.3 7.03634C14.828 7.12447 14.3798 6.61427 14.6019 6.16758L14.6017 6.16722ZM11.271 7.0102C11.2671 6.61643 11.6257 6.32303 12 6.29625C12.2482 6.346 12.5188 6.45177 12.6252 6.70226C12.8237 7.04786 12.6475 7.5235 12.2889 7.68211C12.125 7.77398 11.9311 7.73971 11.7525 7.72884C11.4796 7.59485 11.2497 7.33205 11.2711 7.01027L11.271 7.0102ZM4.99575 7.5839C5.35971 7.36013 5.85075 7.76851 5.71294 8.16387C5.63705 8.50587 5.17733 8.64498 4.91453 8.42667C4.63373 8.22212 4.67844 7.73021 4.99575 7.5839ZM18.471 7.58318C18.7798 7.34342 19.2894 7.61846 19.2526 8.00799C19.2733 8.36353 18.8327 8.63158 18.5262 8.44856C18.1886 8.29685 18.1541 7.77744 18.471 7.58282V7.58318ZM13.0357 8.29066C13.5453 8.10764 14.1506 8.32666 14.441 8.78098C14.8241 9.3364 14.6203 10.1822 14.0257 10.5009C13.4097 10.8778 12.5101 10.5585 12.2826 9.87035C12.0243 9.25446 12.4006 8.48369 13.0357 8.29066ZM10.0459 8.35165C10.6107 8.08524 11.3707 8.30844 11.6435 8.88639C11.9646 9.44872 11.7163 10.2317 11.1424 10.522C10.5678 10.8484 9.75705 10.6012 9.4792 9.99722C9.16708 9.41344 9.44399 8.6205 10.0459 8.35165ZM7.05222 9.37513C7.09542 9.01124 7.43843 8.7745 7.78475 8.74995C8.15792 8.79495 8.45601 9.08475 8.49654 9.46276C8.47206 9.83658 8.18312 10.2021 7.78698 10.1998C7.35109 10.2373 6.96899 9.80375 7.05222 9.37542V9.37513ZM15.8946 8.82937C16.342 8.56887 16.9634 8.9481 16.9435 9.46218C16.9742 10.0069 16.2865 10.391 15.8409 10.0712C15.378 9.80519 15.4141 9.05603 15.8946 8.82944V8.82937ZM8.82918 10.7488C9.35255 10.6048 9.95095 10.8515 10.2076 11.3325C10.4884 11.8167 10.3739 12.4894 9.93719 12.8446C9.3771 13.3655 8.34419 13.1563 8.04611 12.4454C7.7036 11.7937 8.11962 10.9203 8.82918 10.7488V10.7488ZM14.5 10.7461C15.0087 10.6006 15.6064 10.7965 15.8799 11.2602C16.2416 11.7903 16.0689 12.581 15.5306 12.9227C14.9666 13.3195 14.0931 13.1111 13.7828 12.4907C13.4066 11.8489 13.7852 10.9419 14.5 10.7461ZM5.46303 11.3509C5.91512 11.1799 6.41624 11.6788 6.23307 12.127C6.12126 12.5352 5.54583 12.6864 5.24854 12.3852C4.90071 12.1025 5.02952 11.4735 5.4631 11.3509H5.46303ZM17.7168 12.0014C17.7038 11.627 17.9778 11.295 18.3619 11.2741C18.6715 11.3232 18.9726 11.573 18.9481 11.91C18.9765 12.3552 18.4401 12.6577 18.0608 12.4485C17.883 12.3582 17.7918 12.1759 17.7168 12.0011V12.0014ZM3.24031 11.5704C3.51226 11.4517 3.84871 11.6874 3.78665 11.9895C3.77225 12.3315 3.26717 12.4629 3.08169 12.1772C2.91775 11.9791 3.01581 11.6731 3.24031 11.5704ZM20.3892 11.5632C20.5808 11.4269 20.8881 11.5249 20.9639 11.7486C21.0926 11.993 20.8566 12.3278 20.5816 12.2865C20.1954 12.3217 20.0704 11.7332 20.3892 11.5632ZM10.3066 13.2048C11.0222 13.0187 11.7916 13.6152 11.7961 14.3525C11.8428 15.0971 11.0851 15.7575 10.3525 15.5855C9.78621 15.4943 9.3419 14.9488 9.36026 14.3766C9.35874 13.8294 9.77174 13.3206 10.3066 13.2048H10.3066ZM13.1409 13.2033C13.8673 13.0003 14.6595 13.6078 14.648 14.3617C14.6864 15.0926 13.9523 15.7308 13.235 15.5858C12.56 15.4985 12.062 14.7569 12.2504 14.1018C12.3455 13.6654 12.7102 13.3104 13.1409 13.2033ZM7.6761 13.6569C8.17873 13.5712 8.64997 14.1321 8.44614 14.6092C8.29746 15.1178 7.5573 15.2558 7.23006 14.8403C6.84623 14.4414 7.13279 13.712 7.6761 13.6569ZM15.988 13.68C16.4362 13.4923 16.9864 13.88 16.9519 14.3665C16.9699 14.902 16.2906 15.2713 15.8524 14.9587C15.3556 14.6779 15.4463 13.8523 15.988 13.68ZM18.3113 16.0103C18.1359 15.6832 18.4546 15.2496 18.8178 15.3101C18.9986 15.3071 19.1251 15.4495 19.2408 15.5693C19.2646 15.7632 19.3045 15.9941 19.1436 16.1439C18.925 16.4205 18.43 16.3415 18.3113 16.0106V16.0103ZM4.99438 15.4013C5.33386 15.1753 5.82238 15.5123 5.74606 15.9093C5.70545 16.2603 5.26366 16.4609 4.97206 16.2621C4.65951 16.0813 4.67103 15.5665 4.99438 15.4017V15.4013ZM11.7012 16.1364C12.1457 15.9403 12.7118 16.3272 12.6697 16.8167C12.7026 17.3576 12.0023 17.7322 11.5681 17.4072C11.0857 17.1282 11.1659 16.3077 11.7015 16.1362L11.7012 16.1364ZM8.59439 16.8607C8.9729 16.6616 9.48093 17.0055 9.44644 17.4295C9.45796 17.7774 9.11848 18.0739 8.77518 18.0225C8.49085 18.0164 8.30545 17.7615 8.2143 17.5191C8.21898 17.2549 8.3277 16.9608 8.59439 16.8611V16.8607ZM14.8867 16.8672C15.2759 16.6267 15.8292 16.9722 15.7924 17.4252C15.8024 17.8987 15.1772 18.202 14.8147 17.891C14.4638 17.6472 14.5066 17.0611 14.8867 16.8672ZM15.9811 19.5724C15.8083 19.3103 16.0118 18.9947 16.2929 18.935C16.519 18.981 16.7581 19.151 16.7105 19.4131C16.6776 19.7678 16.1588 19.8766 15.9811 19.5724ZM7.29507 19.3448C7.36405 19.1372 7.53109 18.9308 7.77553 18.9848C8.13186 19.0101 8.23763 19.5472 7.92572 19.7127C7.64528 19.9018 7.31991 19.6428 7.29507 19.3448ZM11.4855 19.5831C11.5537 19.2759 11.9513 19.1265 12.2134 19.2897C12.3862 19.3641 12.4371 19.5578 12.4816 19.7225C12.4578 19.8082 12.4366 19.8941 12.4157 19.9799C12.3084 20.107 12.1709 20.2343 11.992 20.2296C11.6602 20.2685 11.3609 19.8934 11.4855 19.5831Z" fill="white"/>
</svg>
