<svg width="24" height="24" viewBox="0 0 24 24" fill="none" xmlns="http://www.w3.org/2000/svg">
<g clip-path="url(#clip0_1381_882)">
<path d="M17.5695 2.11274C16.9448 2.73025 16.3726 3.39952 15.8639 4.11317L15.7031 4.0614C14.7755 3.76189 13.8142 3.57701 12.8455 3.51415C12.5537 3.49196 11.4653 3.49196 11.1099 3.51415C10.0365 3.5844 9.21361 3.7434 8.27853 4.0651C8.24113 4.07989 8.20746 4.09098 8.1738 4.10207C7.64641 3.39213 7.05918 2.72655 6.41211 2.11644C9.51657 0.544943 13.1484 0.356363 16.3988 1.59507C16.7466 1.72449 17.087 1.87609 17.4199 2.03879L17.5695 2.11274Z" fill="#F00500"/>
<path d="M23.3594 16.1379C22.8881 17.4654 22.1812 18.6967 21.2648 19.769C20.7674 20.3458 20.2176 20.8746 19.6266 21.3553C18.2427 22.4572 16.6268 23.2448 14.9026 23.6589C12.995 24.1137 11.0051 24.1137 9.09758 23.6589C7.36956 23.2448 5.75748 22.4572 4.37356 21.3553C3.78259 20.8746 3.23277 20.3458 2.7353 19.769C0.098378 16.6889 -0.70205 12.4587 0.640724 8.64648C0.895066 7.94023 1.21299 7.25987 1.59451 6.61278C1.7703 6.31697 1.98724 5.98418 2.09197 5.84737C2.45104 7.37449 2.8924 8.71674 3.05697 9.20113C3.04575 9.22701 3.03079 9.25659 3.01583 9.28248C2.14433 11.0278 1.67305 12.7102 1.56084 14.4998C1.56084 14.522 1.5571 14.5479 1.5571 14.5701C1.52718 15.1063 1.54214 15.3614 1.63191 15.6979C1.91243 16.7517 2.77645 17.9128 4.13044 19.0516C6.34845 20.9153 9.35567 22.2612 11.6335 22.4165C14.0086 22.5755 17.5133 21.2037 19.8473 19.1996C20.2138 18.8779 20.5579 18.5377 20.8796 18.1753C21.1115 17.9091 21.4556 17.4506 21.4294 17.4506C21.4219 17.4506 21.4294 17.4432 21.4444 17.4358C21.4556 17.4284 21.4668 17.4173 21.4593 17.4099C21.4556 17.4062 21.4631 17.3951 21.4743 17.3914C21.4855 17.3877 21.493 17.3803 21.4893 17.3729C21.4855 17.3655 21.4893 17.3581 21.5042 17.3544C21.5154 17.3507 21.5192 17.3396 21.5154 17.3322C21.5117 17.3248 21.5154 17.3175 21.5229 17.3175C21.5304 17.3175 21.5379 17.3064 21.5379 17.299C21.5379 17.2916 21.5454 17.2805 21.5528 17.2805C21.5603 17.2805 21.5678 17.2731 21.5678 17.2657C21.579 17.2361 21.5977 17.2065 21.6164 17.1806C21.6725 17.0956 21.897 16.6999 21.9269 16.6334C22.1401 16.1564 22.2747 15.7312 22.3383 15.3059C22.3682 15.1026 22.3869 14.7291 22.372 14.6404C22.3682 14.6256 22.3682 14.5997 22.3645 14.559C22.357 14.4851 22.3533 14.3741 22.3458 14.2632C22.3383 14.0968 22.3234 13.8639 22.3121 13.7492C22.1513 12.0705 21.7174 10.6987 20.8946 9.2455C20.8609 9.19004 20.831 9.13457 20.8123 9.0902C20.8048 9.07911 20.801 9.06801 20.7973 9.06062C20.9133 8.71674 21.3883 7.27835 21.766 5.6329L21.7735 5.6403L21.8296 5.71425C21.9269 5.84367 22.185 6.22822 22.3009 6.41311C22.8283 7.26356 23.2397 8.17688 23.5315 9.13087C24.2085 11.4271 24.1524 13.8749 23.3594 16.1379Z" fill="#F00500"/>
<path d="M18.5043 11.7192C18.493 11.7784 18.3172 11.9559 18.1414 12.0853C17.6253 12.4587 16.7014 12.8063 15.7626 12.9727C15.2277 13.0689 14.6929 13.0836 14.532 13.006C14.4273 12.9542 14.4123 12.9136 14.4497 12.7804C14.5283 12.5031 14.7826 12.1999 15.1791 11.9152C15.3811 11.771 16.2002 11.2792 16.5817 11.0721C17.2101 10.7319 17.7188 10.5286 18.0629 10.4805C18.1714 10.4657 18.3023 10.462 18.3434 10.4805C18.4107 10.5064 18.4856 10.7024 18.5155 10.939C18.5304 11.0647 18.523 11.6194 18.5043 11.7192Z" fill="black"/>
<path d="M9.69217 12.9431C9.66973 12.9875 9.55752 13.0356 9.43035 13.0541C9.30317 13.0725 8.91418 13.0614 8.6935 13.0356C7.90056 12.932 7.05899 12.6917 6.44557 12.3959C6.10146 12.2295 5.8546 12.0631 5.67133 11.8819L5.5666 11.7747L5.55538 11.6342C5.53667 11.3901 5.54042 11.0056 5.57034 10.8687C5.58904 10.7541 5.63018 10.6432 5.68629 10.5434C5.71621 10.5064 5.71621 10.5064 5.85086 10.5064C6.01544 10.5064 6.15383 10.5323 6.37825 10.6025C6.83831 10.743 7.52278 11.0832 8.35688 11.5787C9.04509 11.9854 9.30318 12.1851 9.50141 12.4587C9.63606 12.6288 9.72583 12.8692 9.69217 12.9431Z" fill="black"/>
<path d="M14.9885 18.0903C14.9885 18.1013 14.9436 18.2788 14.8875 18.4896C14.8314 18.7004 14.7865 18.8705 14.7865 18.8778C14.7453 18.8815 14.7079 18.8852 14.6668 18.8815H14.5471L14.3825 19.2661C14.2928 19.4769 14.2105 19.6728 14.1992 19.7024L14.1768 19.7542L14.0983 19.6285L14.0197 19.5027V18.4785L13.9898 18.4859C13.9262 18.5007 13.4736 18.5599 13.2754 18.5783C12.4563 18.6597 11.6334 18.6412 10.818 18.5266C10.6871 18.5081 10.5749 18.4933 10.5711 18.497C10.5674 18.5007 10.5711 18.7373 10.5786 19.0294L10.5898 19.5545L10.5263 19.6507C10.4926 19.7024 10.4589 19.7468 10.4589 19.7505C10.4477 19.7616 10.4103 19.7024 10.3243 19.5323C10.2308 19.3548 10.1634 19.1663 10.1148 18.9703L10.0886 18.8631L9.97269 18.8705L9.85674 18.8815L9.82681 18.7447C9.81185 18.6708 9.79315 18.5562 9.78567 18.4933L9.77445 18.375L9.6772 18.2899C9.6211 18.2419 9.56499 18.1938 9.55377 18.1864C9.53507 18.1716 9.52759 18.1457 9.52759 18.1235V18.0792L9.99513 18.0829L10.4627 18.0866L10.4776 18.1346L10.4926 18.1827L10.6534 18.1901C10.7432 18.1938 11.0275 18.2012 11.2818 18.2086L11.7493 18.2197L11.869 18.0348L11.9925 17.8499H12.1496L12.1458 17.4653L12.1421 17.0808L11.9364 16.9921C11.2743 16.7036 10.8853 16.3745 10.7395 15.9752C10.7095 15.8939 10.7095 15.8643 10.702 15.4945C10.6983 15.1284 10.6983 15.0952 10.7245 15.0138C10.7769 14.8289 10.9227 14.6847 11.1097 14.6367C11.1733 14.6182 11.3416 14.6182 12.2244 14.6182L13.2642 14.6219L13.3801 14.6773C13.5185 14.7439 13.5821 14.792 13.6606 14.8955C13.7504 15.0138 13.7766 15.1063 13.7766 15.3318C13.7766 15.6535 13.7542 15.9308 13.7205 16.0418C13.6719 16.1934 13.5971 16.3376 13.5035 16.467C13.3165 16.7036 12.9762 16.9403 12.6657 17.0475L12.5759 17.0808L12.5797 17.469L12.5834 17.8573L12.6657 17.8647L12.748 17.8721L12.8602 18.0385L12.9687 18.2049H13.4699C13.7467 18.2049 13.9898 18.2086 14.0122 18.2123C14.0496 18.2197 14.0571 18.216 14.0945 18.1531L14.1394 18.0866H14.5695C14.8912 18.0718 14.9885 18.0792 14.9885 18.0903Z" fill="black"/>
<path d="M13.0135 19.1515C12.9424 19.1921 12.8938 19.2106 12.8826 19.2032C12.8714 19.1995 12.819 19.1552 12.7629 19.1145L12.6619 19.0331L12.5572 19.1441C12.329 19.3881 12.3215 19.3992 12.2542 19.4029C12.1495 19.414 12.127 19.3955 11.9999 19.2069C11.9325 19.1108 11.8802 19.0294 11.8802 19.0294C11.8802 19.0294 11.8316 19.022 11.7755 19.0183L11.6707 19.0072L11.6221 19.1071L11.5735 19.2069L11.4874 19.181C11.4201 19.1589 11.3528 19.133 11.2892 19.1034L11.177 19.0479V18.8372L12.1719 18.8409L13.1668 18.8446L13.1706 18.9444C13.1743 19.0627 13.1781 19.059 13.0135 19.1515Z" fill="black"/>
<path d="M22.3644 14.6403C22.3606 14.6256 22.3606 14.5997 22.3569 14.559C21.4592 14.4629 18.8971 14.4037 16.5182 16.345C16.5182 16.345 15.7515 12.8692 12.1608 12.8692C8.57007 12.8692 7.23852 16.345 7.23852 16.345C5.22623 14.204 2.5332 14.3593 1.56072 14.4998C1.56072 14.522 1.55697 14.5479 1.55697 14.5701C1.52705 15.1062 1.54201 15.3614 1.63178 15.6979C1.9123 16.7517 2.77632 17.9128 4.13032 19.0516C6.34832 20.9152 9.35554 22.2612 11.6334 22.4165C14.0085 22.5755 17.5132 21.2037 19.8471 19.1995C20.2137 18.8778 20.5578 18.5377 20.8795 18.1753C21.1114 17.9091 21.4555 17.4506 21.4293 17.4506C21.4218 17.4506 21.4293 17.4432 21.4443 17.4358C21.4555 17.4284 21.4667 17.4173 21.4592 17.4099C21.4555 17.4062 21.463 17.3951 21.4742 17.3914C21.4854 17.3877 21.4929 17.3803 21.4891 17.3729C21.4854 17.3655 21.4891 17.3581 21.5041 17.3544C21.5153 17.3507 21.5191 17.3396 21.5153 17.3322C21.5116 17.3248 21.5153 17.3174 21.5228 17.3174C21.5303 17.3174 21.5378 17.3063 21.5378 17.2989C21.5378 17.2916 21.5452 17.2805 21.5527 17.2805C21.5602 17.2805 21.5677 17.2731 21.5677 17.2657C21.5789 17.2361 21.5976 17.2065 21.6163 17.1806C21.6724 17.0956 21.8968 16.6999 21.9268 16.6334C22.1399 16.1564 22.2746 15.7311 22.3382 15.3059C22.3606 15.1025 22.3793 14.7291 22.3644 14.6403ZM13.0136 19.1515C12.9425 19.1921 12.8939 19.2106 12.8827 19.2032C12.8714 19.1995 12.8191 19.1552 12.763 19.1145L12.662 19.0331L12.5573 19.1441C12.3291 19.3881 12.3216 19.3992 12.2543 19.4029C12.1496 19.414 12.1271 19.3955 11.9999 19.2069C11.9326 19.1108 11.8803 19.0294 11.8803 19.0294C11.8803 19.0294 11.8316 19.022 11.7755 19.0183L11.6708 19.0073L11.6222 19.1071L11.5735 19.2069L11.4875 19.181C11.4202 19.1589 11.3529 19.133 11.2893 19.1034L11.1771 19.0479V18.8372L12.172 18.8409L13.1669 18.8446L13.1707 18.9444C13.1744 19.0627 13.1781 19.059 13.0136 19.1515ZM14.8837 18.4859C14.8276 18.6967 14.7827 18.8667 14.7827 18.8741C14.7416 18.8778 14.7042 18.8815 14.6631 18.8778H14.5434L14.3825 19.2661C14.2928 19.4769 14.2105 19.6728 14.1993 19.7024L14.1768 19.7542L14.0983 19.6285L14.0197 19.5027V18.4785L13.9898 18.4859C13.9262 18.5007 13.4736 18.5598 13.2754 18.5783C12.4563 18.6597 11.6334 18.6412 10.818 18.5266C10.6871 18.5081 10.5749 18.4933 10.5711 18.497C10.5674 18.5007 10.5711 18.7373 10.5786 19.0294L10.5898 19.5545L10.5263 19.6506C10.4926 19.7024 10.4589 19.7468 10.4589 19.7505C10.4477 19.7616 10.4103 19.7024 10.3243 19.5323C10.2308 19.3548 10.1634 19.1663 10.1148 18.9703L10.0886 18.863L9.97269 18.8704L9.85674 18.8815L9.82682 18.7447C9.81186 18.6708 9.79316 18.5561 9.78568 18.4933L9.77446 18.375L9.67721 18.2899C9.6211 18.2418 9.565 18.1938 9.55378 18.1864C9.53508 18.1716 9.52759 18.1457 9.52759 18.1235V18.0791L9.99513 18.0828L10.4627 18.0865L10.4776 18.1346L10.4926 18.1827L10.6534 18.1901C10.7432 18.1938 11.0275 18.2012 11.2818 18.2086L11.7493 18.2197L11.869 18.0348L11.9925 17.8499H12.1496L12.1458 17.4653L12.1421 17.0808L11.9364 16.992C11.2743 16.7036 10.8853 16.3745 10.7395 15.9752C10.7095 15.8938 10.7095 15.8643 10.7021 15.4945C10.6983 15.1284 10.6983 15.0952 10.7245 15.0138C10.7769 14.8289 10.9227 14.6847 11.1097 14.6366C11.1733 14.6182 11.3417 14.6182 12.2244 14.6182L13.2642 14.6219L13.3801 14.6773C13.5185 14.7439 13.5821 14.7919 13.6606 14.8955C13.7504 15.0138 13.7766 15.1062 13.7766 15.3318C13.7766 15.6535 13.7542 15.9308 13.7205 16.0417C13.6719 16.1934 13.5971 16.3376 13.5036 16.467C13.3165 16.7036 12.9762 16.9403 12.6657 17.0475L12.576 17.0808L12.5797 17.469L12.5834 17.8573L12.6657 17.8647L12.748 17.8721L12.8602 18.0385L12.9687 18.2049H13.4699C13.7467 18.2049 13.9898 18.2086 14.0122 18.2123C14.0496 18.2197 14.0571 18.216 14.0945 18.1531L14.1394 18.0865H14.5695C14.9024 18.0865 14.9997 18.0902 14.9997 18.1013C14.9885 18.0976 14.9398 18.2788 14.8837 18.4859Z" fill="white"/>
<path d="M22.3347 14.2632C22.3272 14.0968 22.3122 13.8638 22.301 13.7492C22.1402 12.0705 21.7063 10.6987 20.8834 9.24549C20.8498 9.19002 20.8199 9.13456 20.8011 9.09019C20.7937 9.07909 20.7899 9.068 20.7862 9.06061C20.9021 8.71672 21.3772 7.27834 21.7549 5.63289C22.2674 3.39952 22.5928 0.788981 21.5978 0.00508146C21.5978 0.00508146 19.8773 -0.120638 17.5733 2.11274C16.9486 2.73024 16.3764 3.39952 15.8677 4.11316L15.7068 4.06139C14.7792 3.76188 13.818 3.577 12.8492 3.51414C12.5575 3.49196 11.4691 3.49196 11.1137 3.51414C10.0402 3.5844 9.21738 3.7434 8.2823 4.06509C8.2449 4.07988 8.21123 4.09097 8.17757 4.10207C7.65019 3.39212 7.06296 2.72655 6.41588 2.11644C4.01834 -0.128033 2.23421 0.00138359 2.23421 0.00138359C1.17944 0.811167 1.53851 3.54003 2.08459 5.84735C2.44366 7.37448 2.88502 8.71672 3.04959 9.20112C3.03837 9.227 3.02341 9.25658 3.00845 9.28246C2.13696 11.0278 1.66568 12.7102 1.55347 14.4998C2.52969 14.3593 5.21898 14.2003 7.23501 16.345C7.23501 16.345 8.56657 12.8692 12.1573 12.8692C15.748 12.8692 16.5147 16.345 16.5147 16.345C18.8936 14.4037 21.4557 14.4666 22.3534 14.559C22.3496 14.485 22.3422 14.3741 22.3347 14.2632ZM3.75652 7.80711C3.75652 7.80711 2.35763 4.34981 2.71671 2.37527C2.77655 2.04248 2.88876 1.75037 3.06456 1.52851C3.06456 1.52851 4.65045 1.68381 7.20883 4.49402C7.20883 4.49402 6.72259 4.72697 6.07177 5.22245C6.07177 5.22245 6.06803 5.22615 6.06429 5.22615C5.35737 5.76231 4.45222 6.61277 3.75652 7.80711ZM9.6924 12.9431C9.66996 12.9875 9.55775 13.0356 9.43058 13.0541C9.30341 13.0725 8.91442 13.0615 8.69374 13.0356C7.90079 12.932 7.05922 12.6917 6.44581 12.3959C6.1017 12.2295 5.85483 12.0631 5.67156 11.8819L5.56683 11.7747L5.55561 11.6342C5.53691 11.3901 5.54065 11.0056 5.57057 10.8688C5.58927 10.7541 5.63041 10.6432 5.68652 10.5434C5.71644 10.5064 5.71644 10.5064 5.85109 10.5064C6.01567 10.5064 6.15406 10.5323 6.37848 10.6025C6.83854 10.743 7.52302 11.0832 8.35711 11.5787C9.04533 11.9854 9.30341 12.1851 9.50165 12.4587C9.6363 12.6288 9.72606 12.8692 9.6924 12.9431ZM18.5046 11.7192C18.4934 11.7784 18.3176 11.9559 18.1418 12.0853C17.6256 12.4587 16.7018 12.8063 15.7629 12.9727C15.2281 13.0688 14.6932 13.0836 14.5324 13.006C14.4276 12.9542 14.4127 12.9135 14.4501 12.7804C14.5286 12.5031 14.783 12.1999 15.1795 11.9152C15.3814 11.771 16.2006 11.2792 16.5821 11.0721C17.2104 10.7319 17.7191 10.5286 18.0632 10.4805C18.1717 10.4657 18.3026 10.462 18.3438 10.4805C18.4111 10.5064 18.4859 10.7024 18.5158 10.939C18.5308 11.0647 18.5233 11.6194 18.5046 11.7192ZM17.8837 5.22245L17.8762 5.21876C17.2478 4.72327 16.7766 4.49032 16.7766 4.49032C19.2489 1.68011 20.7787 1.52481 20.7787 1.52481C20.947 1.75037 21.0555 2.03878 21.1153 2.37157C21.4632 4.34611 20.1129 7.80711 20.1129 7.80711C19.5481 6.81244 18.7889 5.9324 17.8837 5.22245Z" fill="#FFA409"/>
<path d="M21.1189 2.37157C20.8271 2.33459 19.447 2.3272 17.8835 5.22245L17.876 5.21875C17.2476 4.72327 16.7764 4.49032 16.7764 4.49032C19.2487 1.68011 20.7785 1.52481 20.7785 1.52481C20.9506 1.75037 21.059 2.03878 21.1189 2.37157Z" fill="#FF9300"/>
<path d="M20.1165 7.8071C19.548 6.80874 18.7924 5.9324 17.8835 5.22245C19.447 2.3272 20.8234 2.3346 21.1189 2.37157C21.4668 4.34981 20.1165 7.8071 20.1165 7.8071Z" fill="#FF8300"/>
<path d="M21.1744 2.38267C21.1559 2.37898 21.1374 2.37528 21.1189 2.37158L21.1744 2.38267Z" fill="#FF8300"/>
<path d="M7.20802 4.49032C7.20802 4.49032 6.72178 4.72327 6.07097 5.21875C6.07097 5.21875 6.06722 5.22245 6.06348 5.22245C4.44393 2.3235 3.01886 2.33459 2.71216 2.37157C2.772 2.03878 2.88421 1.74667 3.06001 1.52481C3.06375 1.52481 4.64964 1.68011 7.20802 4.49032Z" fill="#FF9300"/>
<path d="M6.06798 5.22245C5.35732 5.76231 4.45217 6.60907 3.75647 7.8071C3.75647 7.8071 2.35758 4.34981 2.71666 2.37157C3.01962 2.3346 4.44842 2.3272 6.06798 5.22245Z" fill="#FF8300"/>
<path d="M2.7159 2.37158C2.69741 2.37528 2.67523 2.37898 2.65674 2.38267L2.7159 2.37158Z" fill="#FF8300"/>
<path d="M16.3315 9.72618C16.3315 9.72618 15.1346 9.80013 15.2842 8.87572C15.4338 7.95131 16.3689 7.84038 16.6307 7.87736C16.8925 7.91434 17.9398 8.2841 17.7528 9.06061C17.5658 9.83711 17.304 9.6892 17.1543 9.72618C17.0047 9.76316 16.3315 9.72618 16.3315 9.72618Z" fill="white"/>
<path d="M7.50408 9.72618C7.50408 9.72618 6.30718 9.80013 6.45679 8.87572C6.6064 7.95131 7.54148 7.84038 7.8033 7.87736C8.06513 7.91434 9.11242 8.2841 8.9254 9.06061C8.73838 9.83711 8.47656 9.6892 8.32695 9.72618C8.17734 9.76316 7.50408 9.72618 7.50408 9.72618Z" fill="white"/>
</g>
<defs>
<clipPath id="clip0_1381_882">
<rect width="24" height="24" fill="white"/>
</clipPath>
</defs>
</svg>
